<svg width="168" height="168" viewBox="0 0 168 168" fill="none" xmlns="http://www.w3.org/2000/svg">
<g filter="url(#filter0_b_2_63)">
<g filter="url(#filter1_b_2_63)">
<g filter="url(#filter2_d_2_63)">
<path d="M151 82.5C151 67.036 138.464 54.5 123 54.5H81.8381L44 54.5C28.536 54.5 16 67.036 16 82.5V83.5C16 98.964 28.536 111.5 44 111.5H81.8381H123C138.464 111.5 151 98.964 151 83.5V82.5Z" fill="#F2F2F7"/>
<path d="M11 82.5V83.5C11 101.725 25.7746 116.5 44 116.5H81.8381H123C141.225 116.5 156 101.725 156 83.5V82.5C156 64.2746 141.225 49.5 123 49.5L81.8381 49.5H44C25.7746 49.5 11 64.2746 11 82.5Z" stroke="#1E1E1E" stroke-width="10"/>
</g>
<g opacity="0.1">
<g opacity="0.1">
<mask id="path-3-outside-1_2_63" maskUnits="userSpaceOnUse" x="127.12" y="127.12" width="40" height="40" fill="black">
<rect fill="white" x="127.12" y="127.12" width="40" height="40"/>
<path d="M147.12 144.12V147.12H144.12"/>
</mask>
<path d="M147.12 147.12V167.12H167.12V147.12H147.12ZM127.12 144.12V147.12H167.12V144.12H127.12ZM147.12 127.12H144.12V167.12H147.12V127.12Z" fill="#20263C" mask="url(#path-3-outside-1_2_63)"/>
</g>
<g opacity="0.1">
<mask id="path-5-outside-2_2_63" maskUnits="userSpaceOnUse" x="25.88" y="127.12" width="113" height="40" fill="black">
<rect fill="white" x="25.88" y="127.12" width="113" height="40"/>
<path d="M138.35 147.12H25.88Z"/>
</mask>
<path d="M25.88 157.12H28.6918V137.12H25.88V157.12ZM34.3153 157.12H39.9388V137.12H34.3153V157.12ZM45.5623 157.12H51.1858V137.12H45.5623V157.12ZM56.8093 157.12H62.4328V137.12H56.8093V157.12ZM68.0563 157.12H73.6798V137.12H68.0563V157.12ZM79.3033 157.12H84.9268V137.12H79.3033V157.12ZM90.5503 157.12H96.1737V137.12H90.5503V157.12ZM101.797 157.12H107.421V137.12H101.797V157.12ZM113.044 157.12H118.668V137.12H113.044V157.12ZM124.291 157.12H129.915V137.12H124.291V157.12ZM135.538 157.12H138.35V137.12H135.538V157.12ZM25.88 167.12H28.6918V127.12H25.88V167.12ZM34.3153 167.12H39.9388V127.12H34.3153V167.12ZM45.5623 167.12H51.1858V127.12H45.5623V167.12ZM56.8093 167.12H62.4328V127.12H56.8093V167.12ZM68.0563 167.12H73.6798V127.12H68.0563V167.12ZM79.3033 167.12H84.9268V127.12H79.3033V167.12ZM90.5503 167.12H96.1737V127.12H90.5503V167.12ZM101.797 167.12H107.421V127.12H101.797V167.12ZM113.044 167.12H118.668V127.12H113.044V167.12ZM124.291 167.12H129.915V127.12H124.291V167.12ZM135.538 167.12H138.35V127.12H135.538V167.12Z" fill="#20263C" mask="url(#path-5-outside-2_2_63)"/>
</g>
<g opacity="0.1">
<mask id="path-7-outside-3_2_63" maskUnits="userSpaceOnUse" x="0" y="127.12" width="40" height="40" fill="black">
<rect fill="white" y="127.12" width="40" height="40"/>
<path d="M23 147.12H20V144.12"/>
</mask>
<path d="M20 147.12H0V167.12H20V147.12ZM23 127.12H20V167.12H23V127.12ZM40 147.12V144.12H0V147.12H40Z" fill="#20263C" mask="url(#path-7-outside-3_2_63)"/>
</g>
<g opacity="0.1">
<mask id="path-9-outside-4_2_63" maskUnits="userSpaceOnUse" x="0" y="25.88" width="40" height="113" fill="black">
<rect fill="white" y="25.88" width="40" height="113"/>
<path d="M20 138.35L20 25.88Z"/>
</mask>
<path d="M10 25.88V28.6917H30V25.88H10ZM10 34.3152V39.9387H30V34.3152H10ZM10 45.5622V51.1857H30V45.5622H10ZM10 56.8092V62.4327H30V56.8092H10ZM10 68.0562V73.6797H30V68.0562H10ZM10 79.3033V84.9268H30V79.3033H10ZM10 90.5502V96.1737H30V90.5502H10ZM10 101.797L10 107.421H30L30 101.797H10ZM10 113.044V118.668H30V113.044H10ZM10 124.291V129.915H30V124.291H10ZM10 135.538L10 138.35H30V135.538H10ZM0 25.88V28.6917H40V25.88H0ZM0 34.3152V39.9387H40V34.3152H0ZM0 45.5622V51.1857H40V45.5622H0ZM0 56.8092L0 62.4327H40V56.8092H0ZM0 68.0562V73.6797H40V68.0562H0ZM0 79.3033V84.9268H40V79.3033H0ZM0 90.5502V96.1737H40V90.5502H0ZM0 101.797V107.421H40V101.797H0ZM0 113.044V118.668H40V113.044H0ZM0 124.291V129.915H40V124.291H0ZM0 135.538V138.35H40V135.538H0Z" fill="#20263C" mask="url(#path-9-outside-4_2_63)"/>
</g>
<g opacity="0.1">
<mask id="path-11-outside-5_2_63" maskUnits="userSpaceOnUse" x="0" y="0" width="40" height="40" fill="black">
<rect fill="white" width="40" height="40"/>
<path d="M20 23V20H23"/>
</mask>
<path d="M20 20V0H0V20H20ZM40 23V20H0V23H40ZM20 40H23V0H20V40Z" fill="#20263C" mask="url(#path-11-outside-5_2_63)"/>
</g>
<g opacity="0.1">
<mask id="path-13-outside-6_2_63" maskUnits="userSpaceOnUse" x="28.76" y="0" width="113" height="40" fill="black">
<rect fill="white" x="28.76" width="113" height="40"/>
<path d="M28.76 20L141.24 20Z"/>
</mask>
<path d="M28.76 30H31.572V10H28.76V30ZM37.196 30H42.82V10H37.196V30ZM48.444 30H54.068V10H48.444V30ZM59.692 30H65.316V10H59.692V30ZM70.94 30H76.564V10H70.94V30ZM82.188 30H87.812V10H82.188V30ZM93.436 30H99.06V10H93.436V30ZM104.684 30L110.308 30V10L104.684 10V30ZM115.932 30H121.556V10H115.932V30ZM127.18 30H132.804V10H127.18V30ZM138.428 30H141.24V10L138.428 10V30ZM28.76 40H31.572V0H28.76V40ZM37.196 40H42.82V0H37.196V40ZM48.444 40H54.068V0H48.444V40ZM59.692 40H65.316V0L59.692 0V40ZM70.94 40H76.564V0H70.94V40ZM82.188 40H87.812V0H82.188V40ZM93.436 40H99.06V0H93.436V40ZM104.684 40H110.308V0H104.684V40ZM115.932 40H121.556V0H115.932V40ZM127.18 40H132.804V0H127.18V40ZM138.428 40H141.24V0H138.428V40Z" fill="#20263C" mask="url(#path-13-outside-6_2_63)"/>
</g>
<g opacity="0.1">
<mask id="path-15-outside-7_2_63" maskUnits="userSpaceOnUse" x="127.12" y="0" width="40" height="40" fill="black">
<rect fill="white" x="127.12" width="40" height="40"/>
<path d="M144.12 20H147.12V23"/>
</mask>
<path d="M147.12 20H167.12V0H147.12V20ZM144.12 40H147.12V0H144.12V40ZM127.12 20V23H167.12V20H127.12Z" fill="#20263C" mask="url(#path-15-outside-7_2_63)"/>
</g>
<g opacity="0.1">
<mask id="path-17-outside-8_2_63" maskUnits="userSpaceOnUse" x="127.12" y="28.76" width="40" height="113" fill="black">
<rect fill="white" x="127.12" y="28.76" width="40" height="113"/>
<path d="M147.12 28.76V141.24Z"/>
</mask>
<path d="M137.12 28.76V31.572H157.12V28.76H137.12ZM137.12 37.196V42.82H157.12V37.196H137.12ZM137.12 48.444V54.068H157.12V48.444H137.12ZM137.12 59.692V65.316H157.12V59.692H137.12ZM137.12 70.94V76.564H157.12V70.94H137.12ZM137.12 82.188V87.812H157.12V82.188H137.12ZM137.12 93.436V99.06H157.12V93.436H137.12ZM137.12 104.684V110.308H157.12V104.684H137.12ZM137.12 115.932V121.556H157.12V115.932H137.12ZM137.12 127.18V132.804H157.12V127.18H137.12ZM137.12 138.428V141.24H157.12V138.428H137.12ZM127.12 28.76V31.572H167.12V28.76H127.12ZM127.12 37.196V42.82H167.12V37.196H127.12ZM127.12 48.444V54.068H167.12V48.444H127.12ZM127.12 59.692V65.316H167.12V59.692H127.12ZM127.12 70.94V76.564H167.12V70.94H127.12ZM127.12 82.188V87.812H167.12V82.188H127.12ZM127.12 93.436V99.06H167.12V93.436H127.12ZM127.12 104.684V110.308H167.12V104.684H127.12ZM127.12 115.932V121.556H167.12V115.932H127.12ZM127.12 127.18V132.804H167.12V127.18H127.12ZM127.12 138.428V141.24H167.12V138.428H127.12Z" fill="#20263C" mask="url(#path-17-outside-8_2_63)"/>
</g>
</g>
<path d="M83.45 64.57L91.26 69.08L95.22 66.8L83.45 60L63.79 71.36L67.73 73.64L83.45 64.57Z" fill="#20263C"/>
<path d="M99.1601 69.08L83.4501 78.15L75.6401 73.64L71.6901 75.92L83.4501 82.71L103.12 71.36L99.1601 69.08Z" fill="#20263C"/>
<path d="M66.95 84.3401L63 82.0601V95.6401L82.66 107V102.44L66.95 93.3601V84.3401Z" fill="#20263C"/>
<path d="M63 77.4999L78.71 86.5699V95.5899L82.66 97.8799V84.2899L63 72.9399V77.4999Z" fill="#20263C"/>
<path d="M96.0101 82.06V77.5L84.2401 84.29V107L88.1901 104.72V86.57L96.0101 82.06Z" fill="#20263C"/>
<path d="M99.9501 75.2199V93.3599L92.1401 97.8799V102.44L103.91 95.6399V72.9399L99.9501 75.2199Z" fill="#20263C"/>
</g>
</g>
<defs>
<filter id="filter0_b_2_63" x="-4" y="-4" width="175.12" height="175.12" filterUnits="userSpaceOnUse" color-interpolation-filters="sRGB">
<feFlood flood-opacity="0" result="BackgroundImageFix"/>
<feGaussianBlur in="BackgroundImageFix" stdDeviation="2"/>
<feComposite in2="SourceAlpha" operator="in" result="effect1_backgroundBlur_2_63"/>
<feBlend mode="normal" in="SourceGraphic" in2="effect1_backgroundBlur_2_63" result="shape"/>
</filter>
<filter id="filter1_b_2_63" x="-4" y="-4" width="175.12" height="175.12" filterUnits="userSpaceOnUse" color-interpolation-filters="sRGB">
<feFlood flood-opacity="0" result="BackgroundImageFix"/>
<feGaussianBlur in="BackgroundImageFix" stdDeviation="2"/>
<feComposite in2="SourceAlpha" operator="in" result="effect1_backgroundBlur_2_63"/>
<feBlend mode="normal" in="SourceGraphic" in2="effect1_backgroundBlur_2_63" result="shape"/>
</filter>
<filter id="filter2_d_2_63" x="2" y="44.5" width="163" height="85" filterUnits="userSpaceOnUse" color-interpolation-filters="sRGB">
<feFlood flood-opacity="0" result="BackgroundImageFix"/>
<feColorMatrix in="SourceAlpha" type="matrix" values="0 0 0 0 0 0 0 0 0 0 0 0 0 0 0 0 0 0 127 0" result="hardAlpha"/>
<feOffset dy="4"/>
<feGaussianBlur stdDeviation="2"/>
<feComposite in2="hardAlpha" operator="out"/>
<feColorMatrix type="matrix" values="0 0 0 0 0 0 0 0 0 0 0 0 0 0 0 0 0 0 0.25 0"/>
<feBlend mode="normal" in2="BackgroundImageFix" result="effect1_dropShadow_2_63"/>
<feBlend mode="normal" in="SourceGraphic" in2="effect1_dropShadow_2_63" result="shape"/>
</filter>
</defs>
</svg>
